<?xml version="1.0" standalone="no"?>
<!DOCTYPE svg PUBLIC "-//W3C//DTD SVG 20010904//EN"
 "http://www.w3.org/TR/2001/REC-SVG-20010904/DTD/svg10.dtd">
<svg version="1.0" xmlns="http://www.w3.org/2000/svg"
 width="512.000000pt" height="512.000000pt" viewBox="0 0 512.000000 512.000000"
 preserveAspectRatio="xMidYMid meet">
<metadata>
Created by potrace 1.14, written by Peter Selinger 2001-2017
</metadata>
<g transform="translate(0.000000,512.000000) scale(0.100000,-0.100000)"
fill="#000000" stroke="none">
<path d="M1269 5093 c-6 -16 -112 -284 -236 -598 -124 -313 -227 -576 -230
-582 -3 -7 -11 -13 -18 -13 -66 0 -198 -109 -242 -199 -25 -50 -28 -67 -28
-156 0 -90 3 -106 29 -158 l28 -58 -286 -723 -286 -723 2 -377 3 -377 405
1026 405 1026 49 -3 48 -3 480 -1190 c264 -655 480 -1201 481 -1215 0 -14 -10
-52 -22 -85 -32 -82 -26 -195 12 -276 32 -67 117 -150 184 -181 69 -32 227
-32 296 0 66 30 151 114 184 181 25 50 28 67 28 156 -1 81 -5 109 -23 148
l-21 47 854 2172 c470 1194 855 2175 855 2179 0 5 -64 9 -142 9 l-143 0 -645
-1633 c-354 -897 -728 -1841 -830 -2097 l-185 -465 -79 5 -79 5 -479 1187
-479 1187 25 38 c42 65 59 135 54 221 -7 98 -33 157 -102 230 l-54 57 249 630
c137 346 249 631 249 632 0 2 -68 3 -150 3 l-150 0 -11 -27z"/>
</g>
</svg>
